<svg width="34" height="34" viewBox="0 0 34 34" fill="none" xmlns="http://www.w3.org/2000/svg">
<path d="M19.9119 25.3985C20.051 25.3985 20.1902 25.3637 20.3293 25.2942C20.851 25.0507 21.0597 24.4594 20.8163 23.9376C20.8163 23.9376 18.9032 19.555 18.5554 17.955C18.4162 17.3985 18.3467 15.9028 18.3119 15.2072C18.3119 14.9637 18.451 14.755 18.6597 14.6854L22.938 13.3985C23.4597 13.2594 23.7728 12.6681 23.6337 12.1463C23.4945 11.6246 22.9032 11.3115 22.3815 11.4507C22.3815 11.4507 18.4162 12.7376 16.9902 12.7376C15.5988 12.7376 11.6684 11.4854 11.6684 11.4854C11.1467 11.3463 10.5554 11.5898 10.3814 12.1115C10.2075 12.6681 10.5206 13.2594 11.0771 13.3985L15.3554 14.6854C15.5641 14.755 15.738 14.9637 15.7032 15.2072C15.6684 15.9028 15.5989 17.3985 15.4597 17.955C15.1119 19.555 13.1988 23.9376 13.1988 23.9376C12.9554 24.4594 13.1988 25.0507 13.6858 25.2942C13.8249 25.3637 13.9641 25.3985 14.1032 25.3985C14.4858 25.3985 14.8684 25.1898 15.0075 24.8072L17.0597 20.6333L19.0076 24.842C19.1815 25.1898 19.5293 25.3985 19.9119 25.3985Z" fill="#007E78"/>
<path d="M17.0596 11.729C18.1353 11.729 19.0074 10.857 19.0074 9.78121C19.0074 8.70545 18.1353 7.83337 17.0596 7.83337C15.9838 7.83337 15.1118 8.70545 15.1118 9.78121C15.1118 10.857 15.9838 11.729 17.0596 11.729Z" fill="#007E78"/>
<path d="M16.9834 0.333374C7.78338 0.333374 0.333374 7.80004 0.333374 17C0.333374 26.2 7.78338 33.6667 16.9834 33.6667C26.2 33.6667 33.6667 26.2 33.6667 17C33.6667 7.80004 26.2 0.333374 16.9834 0.333374ZM17 30.3334C9.63338 30.3334 3.66671 24.3667 3.66671 17C3.66671 9.63337 9.63338 3.66671 17 3.66671C24.3667 3.66671 30.3334 9.63337 30.3334 17C30.3334 24.3667 24.3667 30.3334 17 30.3334Z" fill="#007E78"/>
</svg>
