<svg width="200 " height="200" viewBox="0 0 64 64" fill="none" xmlns="http://www.w3.org/2000/svg">
<rect width="64" height="64" rx="32"/>
<path d="M37.8348 20.8064C37.8348 21.0721 37.8348 21.3379 37.8348 21.6202C37.8348 21.8195 37.7724 21.969 37.6321 22.1018C37.3359 22.3842 36.9774 22.5337 36.6033 22.6333C36.2447 22.7496 35.8706 22.816 35.4965 22.8991C35.3562 22.9323 35.3094 22.9821 35.3094 23.1316C35.3094 23.6631 35.3094 24.1945 35.3094 24.726C35.3094 24.9253 35.3874 25.0748 35.5588 25.1745C36.4006 25.6727 37.1177 26.3371 37.6945 27.1343C38.3492 28.0311 38.7701 29.0277 38.926 30.1404C39.0351 30.838 39.0039 31.5522 38.9571 32.2498C38.8168 33.8774 38.318 35.3722 37.5853 36.8005C37.2112 37.5313 36.8371 38.2455 36.4786 38.9763C36.2603 39.4081 36.12 39.8731 36.0888 40.3714C36.0577 40.7036 36.12 41.0191 36.2135 41.3181C36.5097 42.1651 36.8215 43.0122 37.1333 43.8426C37.2424 44.1416 37.3671 44.4405 37.4762 44.7395C37.6321 45.1381 37.5386 45.4537 37.2112 45.7194C36.8839 45.9851 36.4941 46.118 36.1044 46.2176C35.4029 46.4003 34.6859 46.4668 33.9532 46.4834C33.4076 46.5 32.862 46.5 32.3008 46.5C31.3967 46.4834 30.477 46.4336 29.604 46.1512C29.2922 46.0516 28.996 45.9353 28.7466 45.7194C28.4193 45.4537 28.3413 45.1381 28.4816 44.7395C28.7778 43.9423 29.1052 43.1617 29.4013 42.381C29.5728 41.8994 29.7131 41.4011 29.8378 40.8863C29.9469 40.4212 29.8534 39.9728 29.6975 39.5244C29.4793 38.8932 29.1675 38.3119 28.8557 37.714C28.4037 36.867 27.9672 36.0033 27.6398 35.0898C27.3437 34.2594 27.141 33.4124 27.0475 32.5321C27.0007 31.8511 26.9695 31.137 27.0475 30.4394C27.1878 29.1273 27.671 27.9481 28.4972 26.9184C29.0428 26.2374 29.6819 25.6561 30.4458 25.2077C30.6328 25.108 30.7264 24.9419 30.7108 24.726C30.7108 24.2112 30.7108 23.6797 30.7108 23.1648C30.7108 22.9987 30.664 22.9489 30.4925 22.9157C29.9314 22.816 29.3858 22.6832 28.8713 22.434C28.7778 22.3842 28.6843 22.3344 28.6063 22.2845C28.3257 22.1018 28.1699 21.8693 28.1854 21.5039C28.2166 21.0057 28.201 20.4908 28.1854 19.9925C28.1854 19.8099 28.2478 19.6604 28.3725 19.5441C28.5907 19.3282 28.8713 19.1953 29.1519 19.0791C29.7287 18.8465 30.3367 18.7303 30.9446 18.6472C31.8332 18.4978 32.7529 18.4812 33.657 18.5144C34.7482 18.5642 35.8394 18.6805 36.8839 19.0791C37.1644 19.1787 37.4295 19.3116 37.6477 19.5275C37.788 19.6604 37.8503 19.8099 37.8503 20.0092C37.8348 20.2749 37.8348 20.5406 37.8348 20.8064Z" stroke="#fff" stroke-width="1.5"/>
</svg>
