<svg width="64" height="64" viewBox="0 0 64 64" fill="none" xmlns="http://www.w3.org/2000/svg">
<rect width="64" height="64" rx="32" fill="#65987C"/>
<path d="M41.7999 24.4H38.9999C38.9999 20.536 35.8639 17.4 31.9999 17.4C28.1359 17.4 24.9999 20.536 24.9999 24.4H22.1999C20.6599 24.4 19.3999 25.66 19.3999 27.2V44C19.3999 45.54 20.6599 46.8 22.1999 46.8H41.7999C43.3399 46.8 44.5999 45.54 44.5999 44V27.2C44.5999 25.66 43.3399 24.4 41.7999 24.4ZM31.9999 20.2C34.3239 20.2 36.1999 22.076 36.1999 24.4H27.7999C27.7999 22.076 29.6759 20.2 31.9999 20.2ZM41.7999 44H22.1999V27.2H41.7999V44ZM31.9999 32.8C29.6759 32.8 27.7999 30.924 27.7999 28.6H24.9999C24.9999 32.464 28.1359 35.6 31.9999 35.6C35.8639 35.6 38.9999 32.464 38.9999 28.6H36.1999C36.1999 30.924 34.3239 32.8 31.9999 32.8Z" fill="white"/>
</svg>
