<svg width="64" height="64" viewBox="0 0 64 64" fill="none" xmlns="http://www.w3.org/2000/svg">
<rect width="64" height="64" rx="32" fill="#007E78"/>
<path d="M34.7976 35.084C33.0214 35.084 31.2851 34.5244 29.8082 33.4759C28.3313 32.4274 27.1803 30.9371 26.5005 29.1936C25.8208 27.45 25.643 25.5314 25.9895 23.6804C26.336 21.8295 27.1913 20.1293 28.4473 18.7948C29.7033 17.4603 31.3035 16.5515 33.0456 16.1834C34.7876 15.8152 36.5934 16.0041 38.2344 16.7263C39.8754 17.4486 41.278 18.6716 42.2648 20.2407C43.2516 21.8099 43.7783 23.6548 43.7783 25.542C43.7763 28.072 42.8295 30.4978 41.1457 32.2868C39.4619 34.0758 37.1788 35.0818 34.7976 35.084ZM34.7976 17.3805C33.2775 17.3805 31.7914 17.8595 30.5275 18.7569C29.2636 19.6543 28.2786 20.9299 27.697 22.4222C27.1155 23.9145 26.9635 25.5565 27.2603 27.1406C27.5572 28.7246 28.2895 30.1796 29.3647 31.3214C30.4399 32.4632 31.8096 33.2406 33.3006 33.5552C34.7917 33.8698 36.337 33.7075 37.7413 33.0889C39.1455 32.4702 40.3455 31.423 41.1895 30.0796C42.0335 28.7363 42.4836 27.1572 42.4828 25.542C42.4798 23.3777 41.669 21.3031 40.2283 19.7731C38.7876 18.2431 36.8346 17.3826 34.7976 17.3805Z" fill="white"/>
<path d="M48.9643 37.5935C48.5991 37.1274 48.0931 36.8101 47.5325 36.6957C46.9719 36.5813 46.3913 36.6768 45.8895 36.966L45.1808 36.0511C44.8705 35.6648 44.4391 35.4109 43.9663 35.3365C43.4934 35.262 43.0112 35.3721 42.6089 35.6463L41.9116 36.1361L41.4925 35.6058C41.1829 35.2197 40.7521 34.966 40.2799 34.8916C39.8077 34.8171 39.3262 34.9271 38.9244 35.2009L34.1921 38.4761L28.934 36.1766C28.1198 35.8236 27.2318 35.7074 26.3613 35.8397C25.4908 35.972 24.6691 36.3482 23.9807 36.9296L17.2747 42.5973C17.2025 42.6514 17.1414 42.7206 17.0952 42.8007C17.0491 42.8808 17.0189 42.9701 17.0064 43.0631C16.994 43.1561 16.9996 43.2508 17.0229 43.3414C17.0462 43.432 17.0867 43.5165 17.1419 43.5899C17.1972 43.6632 17.2659 43.7238 17.344 43.7678C17.4221 43.8119 17.5078 43.8384 17.5959 43.846C17.684 43.8535 17.7726 43.8418 17.8563 43.8115C17.94 43.7813 18.017 43.7331 18.0825 43.6701L24.7885 38.0024C25.2986 37.5704 25.9081 37.2911 26.5539 37.1936C27.1998 37.0961 27.8584 37.1838 28.4615 37.4478L37.7585 41.4961C38.0414 41.6311 38.2641 41.8772 38.38 42.1828C38.496 42.4884 38.496 42.8298 38.3803 43.1355C38.2645 43.4412 38.0419 43.6874 37.759 43.8225C37.4762 43.9576 37.1551 43.9712 36.8631 43.8604L30.5724 41.2532C30.4923 41.2142 30.4055 41.1929 30.3174 41.1907C30.2293 41.1885 30.1417 41.2054 30.06 41.2404C29.9782 41.2754 29.904 41.3278 29.842 41.3943C29.78 41.4608 29.7314 41.5401 29.6992 41.6273C29.667 41.7145 29.6519 41.8077 29.6548 41.9013C29.6577 41.9949 29.6785 42.0869 29.716 42.1716C29.7535 42.2564 29.8069 42.3321 29.873 42.3941C29.939 42.4562 30.0162 42.5033 30.0999 42.5325L36.3716 45.1599C36.662 45.2795 36.9707 45.3413 37.2822 45.3421C37.9246 45.3409 38.542 45.0777 39.0071 44.6069C39.4722 44.1361 39.7495 43.4935 39.7817 42.8119L39.8541 42.7714L46.4077 38.2251C46.6685 38.0528 46.9819 37.9945 47.2823 38.0623C47.5826 38.1301 47.8467 38.3188 48.019 38.5888C48.1914 38.8588 48.2588 39.1892 48.207 39.5108C48.1552 39.8324 47.9883 40.1202 47.7413 40.314L38.8634 47.0019C38.3003 47.428 37.6539 47.7137 36.9725 47.8378C36.291 47.9618 35.5921 47.921 34.9275 47.7185L27.4328 45.4757C26.7533 45.2721 26.0376 45.2456 25.3464 45.3985C24.6553 45.5515 24.009 45.8793 23.4625 46.3542L21.4431 48.1152C21.3419 48.2058 21.2693 48.3271 21.2349 48.4629C21.2006 48.5987 21.2062 48.7424 21.251 48.8746C21.2958 49.0069 21.3777 49.1214 21.4856 49.2028C21.5935 49.2841 21.7223 49.3284 21.8546 49.3297C22.0034 49.3313 22.1478 49.2768 22.2623 49.1759L24.3008 47.4351C24.6855 47.1 25.1407 46.8687 25.6276 46.7609C26.1146 46.653 26.6188 46.6718 27.0975 46.8157L34.5731 49.0544C35.4224 49.309 36.3146 49.3576 37.1839 49.1964C38.0531 49.0352 38.8771 48.6685 39.595 48.1233L48.4919 41.4354C48.7717 41.2254 49.0075 40.956 49.1845 40.6443C49.3614 40.3326 49.4757 39.9854 49.5201 39.6244C49.5645 39.2635 49.538 38.8967 49.4424 38.5471C49.3467 38.1976 49.184 37.8729 48.9643 37.5935ZM39.6026 36.3507C39.7408 36.2575 39.9059 36.2206 40.0677 36.2466C40.2294 36.2727 40.3768 36.3599 40.4828 36.4924L40.8029 36.8972L36.8745 39.646L35.6438 39.1076L39.6026 36.3507ZM39.4578 41.399C39.1992 40.9061 38.7986 40.5145 38.3148 40.2816L43.3024 36.796C43.4403 36.7032 43.605 36.6661 43.7665 36.6914C43.928 36.7166 44.0756 36.8026 44.1825 36.9336L44.7845 37.719L39.4578 41.399Z" fill="white"/>
<path d="M34.878 22.5868C35.5095 22.6088 36.1368 22.7038 36.7489 22.8701C36.9146 22.9185 37.0916 22.8948 37.2409 22.8045C37.3903 22.7141 37.4997 22.5645 37.5452 22.3884C37.5907 22.2123 37.5685 22.0242 37.4834 21.8656C37.3984 21.7069 37.2575 21.5906 37.0918 21.5423C36.5774 21.4026 36.054 21.3038 35.5258 21.2467V20.3116C35.5258 20.129 35.4575 19.954 35.3361 19.8249C35.2146 19.6959 35.0498 19.6234 34.878 19.6234C34.7063 19.6234 34.5415 19.6959 34.42 19.8249C34.2986 19.954 34.2303 20.129 34.2303 20.3116V21.2548C32.4928 21.5058 32.2833 22.7649 32.2833 23.3397C32.2833 24.7688 33.6702 25.3639 34.5008 25.7364L34.6609 25.8052L34.9047 25.9105C35.743 26.2627 36.1088 26.4853 36.1088 27.125C36.1088 27.7646 35.7049 28.0763 34.9162 28.1128H34.779C34.0361 28.0402 33.3071 27.8534 32.6148 27.5581C32.5346 27.5209 32.4482 27.5014 32.3607 27.5006C32.2732 27.4999 32.1865 27.518 32.1058 27.5538C32.0251 27.5897 31.952 27.6425 31.8911 27.7092C31.8301 27.7758 31.7825 27.8549 31.751 27.9417C31.7196 28.0284 31.7051 28.121 31.7083 28.2139C31.7114 28.3068 31.7323 28.398 31.7696 28.4821C31.8068 28.5662 31.8598 28.6414 31.9251 28.7031C31.9905 28.7649 32.067 28.812 32.1499 28.8415C32.8225 29.1137 33.5196 29.3118 34.2303 29.4325V30.3596C34.2303 30.5421 34.2986 30.7172 34.42 30.8462C34.5415 30.9753 34.7063 31.0478 34.878 31.0478C35.0498 31.0478 35.2146 30.9753 35.3361 30.8462C35.4575 30.7172 35.5258 30.5421 35.5258 30.3596V29.4001C36.7031 29.1572 37.4042 28.3273 37.4042 27.1047C37.4042 25.4854 36.1392 24.951 35.3848 24.6312L35.0038 24.4611C34.4094 24.202 33.5902 23.8458 33.5902 23.3397C33.5788 23.0968 33.5788 22.5868 34.878 22.5868Z" fill="white"/>
</svg>
