<svg width="64" height="64" viewBox="0 0 64 64" fill="none" xmlns="http://www.w3.org/2000/svg">
<rect width="64" height="64" rx="32" fill="#007E78"/>
<path fill-rule="evenodd" clip-rule="evenodd" d="M27.9548 22.0413C27.4109 22.5886 27.3894 23.5801 28.0634 24.2583C28.2106 24.4064 28.625 24.6457 29.2901 24.9238C29.9134 25.1845 30.6402 25.4333 31.2937 25.639C31.3469 25.6558 31.3851 25.6529 31.4118 25.646C31.441 25.6385 31.4685 25.6228 31.4912 25.6C31.5139 25.5772 31.5295 25.5495 31.537 25.5201C31.5438 25.4933 31.5466 25.4548 31.53 25.4013C31.3255 24.7436 31.0783 24.0123 30.8193 23.3851C30.5428 22.7157 30.3051 22.2987 30.1579 22.1506C29.4839 21.4723 28.4987 21.494 27.9548 22.0413ZM26.9143 25.4146C25.677 24.1695 25.5583 22.1404 26.8058 20.885C28.0532 19.6297 30.0696 19.7491 31.307 20.9943C31.7103 21.4001 32.0513 22.1072 32.3198 22.7576C32.5291 23.2642 32.7265 23.8198 32.9001 24.3475C33.0737 23.8198 33.2711 23.2642 33.4803 22.7576C33.7489 22.1072 34.0898 21.4001 34.4932 20.9943C35.7305 19.7491 37.7469 19.6297 38.9944 20.885C40.2419 22.1404 40.1231 24.1695 38.8859 25.4146C38.5102 25.7926 37.875 26.1162 37.2675 26.3771H44.9167C45.515 26.3771 46 26.8652 46 27.4673V32.373C46 32.9751 45.515 33.4632 44.9167 33.4632H43.8333V44.9098C43.8333 45.5119 43.3483 46 42.75 46H23.25C22.6517 46 22.1667 45.5119 22.1667 44.9098V33.4632H21.0833C20.485 33.4632 20 32.9751 20 32.373V27.4673C20 26.8652 20.485 26.3771 21.0833 26.3771H28.5326C27.9251 26.1162 27.29 25.7926 26.9143 25.4146ZM21.625 28.0124V31.8279H23.25H32.1875V28.0124H21.625ZM33.8125 28.0124V31.8279H42.75H44.375V28.0124H33.8125ZM32.1875 33.4632H23.7917V44.3648H32.1875V33.4632ZM33.8125 44.3648V33.4632H42.2083V44.3648H33.8125ZM37.7368 24.2583C38.4108 23.5801 38.3893 22.5886 37.8453 22.0413C37.3014 21.494 36.3162 21.4723 35.6423 22.1506C35.495 22.2987 35.2573 22.7157 34.9809 23.3851C34.7219 24.0123 34.4746 24.7436 34.2702 25.4013C34.2535 25.4548 34.2563 25.4933 34.2632 25.5201C34.2707 25.5495 34.2862 25.5772 34.3089 25.6C34.3316 25.6228 34.3591 25.6385 34.3883 25.646C34.415 25.6529 34.4532 25.6558 34.5064 25.639C35.16 25.4333 35.8867 25.1845 36.51 24.9238C37.1752 24.6457 37.5896 24.4064 37.7368 24.2583Z" fill="white"/>
</svg>
