<svg xmlns="http://www.w3.org/2000/svg" xmlns:xlink="http://www.w3.org/1999/xlink" width="310" height="80" viewBox="0 0 322 89" fill="none" xmlns:v="https://vecta.io/nano"><g clip-path="url(#A)"><path d="M289.58 48.66a9.39 9.39 0 0 1 4.154-3.118c1.65-.628 3.444-.778 5.176-.432l4.94-3.95c.14-.1.27-.2.4-.32h-.01c-6.48-3-13.28-1.38-17.18 2.78l-.52.6c-.2.23-.4.47-.6.7.23.27 1.67 1.9 3.58 3.84a.35.35 0 0 1 .07-.09" fill="#1074a8"/><path d="M285.95 44.88l-.01.01c-5-6.25-10.48-16.44-2.32-25.3a41.15 41.15 0 0 0-12.86 21.39c-3.68 17.42 5.34 27.45 13.33 32.36-8.06-6.72-5.7-19.26 1.86-28.45z" fill="#89c33f"/><path d="M285.95 44.9l-.07.1c.02-.03.05-.06.08-.1 8.1-9.57 22.4-20.58 18-26.87-2.82-4.02-9.1-4.22-12.78-3.04-.14.06-.28.1-.42.18-2.6 1.11-4.998 2.608-7.14 4.44-8.17 8.87-2.7 19.05 2.32 25.3z" fill="#d4dc23"/><path d="M304.25 40.83l-5.34 4.27c17.78 3.42 15.6 30.3-4 31.22a19.39 19.39 0 0 1-6.75-.96 26.05 26.05 0 0 0 .76.28c11.8 3.94 22.58-2.02 25.28-12.1 2.53-9.45-1.08-18.58-9.96-22.7" fill="#ee5a22"/><g fill="#3c99d3"><path d="M291.18 14.97c3.7-1.17 9.96-.98 12.78 3.04 4.2 6-8.7 16.33-16.9 25.6 3.9-4.16 10.7-5.8 17.17-2.78h.01c23.5-18.75 2.83-32.5-13.06-25.85zm-5.24 29.93h.01-.01zm.05 14.58c-.008-.01-.015-.02-.02-.03-3.16-5.6-2.6-10.8.01-14.52.02.02.04.05.07.08l-.1-.12h-.02c-7.56 9.18-9.9 21.7-1.86 28.42a6.31 6.31 0 0 1 .33.22 23.53 23.53 0 0 0 3.16 1.6h.01c-6.6-2.68-4.6-10.36-1.58-15.65"/></g><path d="M301 58.25c.307-.998.458-2.036.45-3.08.07.96-.83 5.2-4.52 6.32-3.95 1.2-8.05-1.7-8.87-5.3l-2.08 3.3c3.85 5.2 12.5 6.02 15.02-1.22" fill="#e25d38"/><path d="M288.07 56.18c-.338-1.27-.383-2.6-.134-3.9a8.7 8.7 0 0 1 1.574-3.56l-3.53-3.8c-2.62 3.7-3.17 8.9-.01 14.5l.02.04c.5-.86 1.3-2.08 2.08-3.3z" fill="#1074a8"/><path d="M300.63 45.52l-.4-.1-.3-.08c-.1-.04-.23-.06-.34-.1l-.7-.14-.1.04c-2.085 1.702-4.078 3.515-5.97 5.43a5.33 5.33 0 0 1 2.068-1.004c.754-.18 1.538-.194 2.298-.04s1.477.472 2.102.933 1.14 1.05 1.512 1.73l.12.23c.02.05.05.1.07.13l.14.33c.256.707.368 1.46.33 2.2.002.1-.002.18-.01.27-.016.98-.168 1.952-.45 2.9-2.5 7.24-11.17 6.42-15.02 1.22-3 5.3-5 12.97 1.6 15.67.14.06.36.14.64.24a19.41 19.41 0 0 0 6.69.94c18.9-.88 21.58-26.02 5.7-30.8" fill="#f28020"/><g fill="#e25d38"><path d="M292.86 50.55a74.83 74.83 0 0 1 6.04-5.45 9.38 9.38 0 0 0-9.33 3.55c-.022.025-.042.052-.06.08l2.62 2.5a6.68 6.68 0 0 1 .73-.68"/><path d="M292.15 51.23l-2.65-2.52v.02a8.6 8.6 0 0 0-1.586 3.558 8.59 8.59 0 0 0 .146 3.892c1.167-1.622 2.44-3.165 3.8-4.62.08-.117.172-.227.27-.33z"/></g><path d="M301.48 54.7c.007.48-.05.956-.17 1.42h-.01v.01a5.33 5.33 0 0 1-6.52 3.76h-.02a5.35 5.35 0 0 1-3.237-2.485c-.708-1.224-.903-2.678-.543-4.044.172-.655.47-1.27.88-1.8a46.81 46.81 0 0 0-3.8 4.62h0v-.01c.82 3.63 4.92 6.52 8.87 5.3 3.5-1.07 4.5-4.92 4.52-6.14.008.325-.013.65-.06.97.1-.528.12-1.065.1-1.6" fill="#ee802d"/><g fill="#fff"><path d="M0 63.9v-3.37C0 52.4 4.54 48.2 12.2 48.2a11 11 0 0 1 7.91 3.17.72.72 0 0 1 .175.24.77.77 0 0 1 .064.29.91.91 0 0 1-.24.53l-1.38 1.62c-.06.084-.14.152-.233.2s-.193.076-.297.08a.87.87 0 0 1-.5-.16 8.66 8.66 0 0 0-5.72-2.15c-4.63 0-7.02 2.4-7.02 7.8v4.75c0 5.23 2.4 7.8 6.45 7.8 3.5 0 5.64-1.38 5.64-5.03V64.9H12.6a.7.7 0 0 1-.77-.77V61.9a.7.7 0 0 1 .77-.77h8.48a.7.7 0 0 1 .77.77v4.87c0 6.1-4.26 9.42-10.47 9.42C4.22 76.15 0 71.97 0 63.9zm25.6 11.12V57.25a.75.75 0 0 1 .45-.77 18.57 18.57 0 0 1 8.04-1.83 19.53 19.53 0 0 1 2.15.08.67.67 0 0 1 .57.73v2.2c0 .4-.24.57-.7.57h-1.5a11.44 11.44 0 0 0-4.1.61v16.2a.6.6 0 0 1-.651.65h-3.6a.6.6 0 0 1-.66-.649m13.97-7.64V55.62a.58.58 0 0 1 .172-.48.78.78 0 0 1 .22-.14.48.48 0 0 1 .26-.032h3.6a.6.6 0 0 1 .65.651v11.85c0 4.06 1.5 5.07 4.26 5.07a18.86 18.86 0 0 0 4.14-.37V55.6c-.01-.088.002-.176.032-.26a.58.58 0 0 1 .14-.22.78.78 0 0 1 .22-.14.48.48 0 0 1 .26-.032h3.6a.6.6 0 0 1 .65.65v18.26a.71.71 0 0 1-.49.73c-2.862.986-5.863 1.506-8.9 1.54-6.04.01-8.84-3.07-8.84-8.75M80.84 63.86v2.8c0 6.2-3.77 9.37-9.66 9.37a12.61 12.61 0 0 1-4.26-.69v8c.01.088-.002.176-.032.26a.58.58 0 0 1-.14.22.78.78 0 0 1-.22.14.48.48 0 0 1-.26.032h-3.6a.6.6 0 0 1-.65-.65v-26.3a.7.7 0 0 1 .49-.73 21.84 21.84 0 0 1 8.28-1.83c6.6 0 10.06 3.3 10.06 9.38h0zm-4.9.16c0-4.26-1.38-6-4.9-6a13.24 13.24 0 0 0-4.1.65v13.27a11.39 11.39 0 0 0 3.98.57c3.86 0 5.03-1.9 5.03-6.13v-2.35z"/><use xlink:href="#B"/><path d="M107.62 75.38a.71.71 0 0 1-.267-.077.73.73 0 0 1-.218-.173.71.71 0 0 1-.134-.244.72.72 0 0 1-.031-.276v-25c-.01-.094-.003-.2.024-.28a.7.7 0 0 1 .354-.42c.084-.043.177-.066.27-.07 2.763-.457 5.56-.674 8.36-.65 6.2 0 10.23 2.88 10.23 7.02v.7a5.99 5.99 0 0 1-3.08 5.11 7.29 7.29 0 0 1 3.118 2.57c.776 1.133 1.213 2.466 1.262 3.84v.77c0 4.87-3.98 7.95-11.08 7.95a44.45 44.45 0 0 1-8.81-.76h0zm9.5-15.42c2.8 0 4.5-1.42 4.5-3.77v-.5c0-2.3-2-3.7-5.23-3.7a39.9 39.9 0 0 0-4.83.25v7.7h5.56v-.01zm5.56 8.08v-.5c0-2.48-1.9-3.98-4.95-3.98h-6.17v8.52a48.8 48.8 0 0 0 5.44.24c3.7.01 5.68-1.45 5.68-4.3m7.74-1.4v-2.6c0-6.33 3.9-9.54 9.62-9.54 5.8 0 9.62 3.2 9.62 9.54v2.6c0 6.33-3.9 9.54-9.62 9.54-5.8-.01-9.62-3.2-9.62-9.54zm14.33-.17v-2.27c0-4.42-1.34-6.2-4.7-6.2s-4.7 1.87-4.7 6.2v2.27c0 4.42 1.34 6.2 4.7 6.2s4.7-1.86 4.7-6.2zm19.75 6.2v2.15c.015.18-.034.36-.138.508a.77.77 0 0 1-.432.302 11.99 11.99 0 0 1-3.49.53c-4.95 0-7.5-2.64-7.5-7.7v-17.7a.64.64 0 0 1 .032-.253.63.63 0 0 1 .127-.221.64.64 0 0 1 .204-.154c.077-.037.16-.058.247-.062l3.3-.77c.187-.05.378-.1.57-.12.28 0 .45.24.45.57v5.23h5.88a.6.6 0 0 1 .258.034.61.61 0 0 1 .22.14.58.58 0 0 1 .14.22.6.6 0 0 1 .034.258v2.3c.01.088-.002.176-.032.26a.59.59 0 0 1-.359.36.6.6 0 0 1-.26.032h-5.88v9.7c0 3.45 1.1 4.26 3.53 4.26a8.41 8.41 0 0 0 2.3-.28 1.75 1.75 0 0 1 .4-.08c.24-.01.4.16.4.48m2.97-22.924v-.53c-.016-.358.046-.715.182-1.046a2.48 2.48 0 0 1 .605-.873 2.47 2.47 0 0 1 1.973-.641c.354-.042.712-.007 1.05.105a2.44 2.44 0 0 1 .908.54 2.43 2.43 0 0 1 .593.873c.132.33.2.686.17 1.042v.53a2.43 2.43 0 0 1-.17 1.04 2.45 2.45 0 0 1-.594.872 2.44 2.44 0 0 1-1.956.647 2.47 2.47 0 0 1-1.973-.641c-.262-.244-.47-.54-.605-.873a2.49 2.49 0 0 1-.182-1.046h0zm.3 25.3v-19.4a.58.58 0 0 1 .032-.26.59.59 0 0 1 .359-.36.6.6 0 0 1 .26-.032h3.6a.6.6 0 0 1 .477.174.61.61 0 0 1 .139.219c.03.082.042.17.034.258v19.4a.59.59 0 0 1-.034.257c-.03.082-.078.157-.14.22a.6.6 0 0 1-.22.14c-.082.03-.17.04-.257.034h-3.6a.6.6 0 0 1-.258-.034.61.61 0 0 1-.22-.14.6.6 0 0 1-.139-.219.59.59 0 0 1-.034-.257m8.55-8.9v-1.7c0-6.7 3.94-9.94 9.94-9.94 2.04.006 4.015.708 5.6 2a.77.77 0 0 1 .32.571.98.98 0 0 1-.24.57l-1.18 1.46c-.2.24-.37.37-.57.37-.166-.023-.322-.093-.45-.2-1.04-.752-2.287-1.164-3.57-1.18-3.9 0-4.95 2.3-4.95 6.66v1.22c0 4.3 1.22 6.66 4.9 6.66a7.47 7.47 0 0 0 4.18-1.38c.105-.075.23-.117.36-.12.16 0 .28.12.5.4l1.18 1.62a.77.77 0 0 1 .2.49.62.62 0 0 1-.28.49 10.98 10.98 0 0 1-6.17 2.07c-6.28-.04-9.77-3.2-9.77-10.06m34.74-2.68v10.27a1.01 1.01 0 0 1-.65 1.01 19.93 19.93 0 0 1-7.83 1.42c-5.23 0-8.24-2.07-8.24-6v-.85c0-3.73 2.92-5.68 8.24-5.68h3.9v-.57c0-3.37-1.1-4.95-4.26-4.95a9.03 9.03 0 0 0-4.59 1.3.9.9 0 0 1-.41.12.78.78 0 0 1-.342-.089.77.77 0 0 1-.268-.23l-1.14-1.54c-.13-.146-.202-.334-.2-.53a.58.58 0 0 1 .072-.305.59.59 0 0 1 .218-.225c1.982-1.36 4.326-2.094 6.73-2.1 5.8 0 8.77 2.88 8.77 8.97h0zm-12.7-11.85v-1.5a.87.87 0 0 1 .69-.81l8.72-2.72c.37-.12.65.04.65.45v2.72c.012.195-.04.4-.152.55s-.272.28-.458.34l-8.76 1.58c-.44.08-.7-.16-.7-.6zm8.12 20.57v-5.52h-3.9c-2.72 0-3.8.97-3.8 2.68v.65c0 1.5 1.1 2.72 3.8 2.72a9 9 0 0 0 3.9-.53m8.72 2.85V57.25a.75.75 0 0 1 .45-.77 18.61 18.61 0 0 1 8.04-1.83 19.53 19.53 0 0 1 2.15.08.67.67 0 0 1 .57.73v2.2c0 .4-.24.57-.7.57h-1.5a11.44 11.44 0 0 0-4.1.61v16.2a.59.59 0 0 1-.034.257c-.03.082-.078.157-.14.22s-.137.1-.22.14-.17.04-.258.034h-3.6c-.088.008-.176-.003-.26-.033a.61.61 0 0 1-.222-.139.63.63 0 0 1-.142-.22.6.6 0 0 1-.037-.258m13.833-25.31v-.53c-.015-.358.048-.714.184-1.045s.343-.63.605-.872a2.48 2.48 0 0 1 .915-.538 2.47 2.47 0 0 1 1.056-.105c.354-.042.712-.007 1.05.105a2.44 2.44 0 0 1 .908.54 2.43 2.43 0 0 1 .593.873c.132.33.2.686.17 1.042v.53a2.43 2.43 0 0 1-.763 1.915 2.44 2.44 0 0 1-1.958.645 2.47 2.47 0 0 1-1.973-.641c-.262-.244-.47-.54-.605-.873a2.49 2.49 0 0 1-.182-1.046h0zm.3 25.3v-19.4a.58.58 0 0 1 .032-.26.59.59 0 0 1 .359-.36c.083-.03.172-.04.26-.032h3.6a.6.6 0 0 1 .258.034.61.61 0 0 1 .22.14.58.58 0 0 1 .14.22.6.6 0 0 1 .034.258v19.4a.59.59 0 0 1-.034.257.6.6 0 0 1-.139.219c-.062.062-.137.1-.22.14s-.17.04-.258.034h-3.6a.59.59 0 0 1-.257-.034.6.6 0 0 1-.22-.14.61.61 0 0 1-.139-.219.59.59 0 0 1-.034-.257m8.548-8.4v-2.6c0-6.33 3.9-9.54 9.62-9.54 5.8 0 9.62 3.2 9.62 9.54v2.6c0 6.33-3.9 9.54-9.62 9.54-5.8-.01-9.62-3.2-9.62-9.54zm14.32-.17v-2.27c0-4.42-1.34-6.2-4.7-6.2s-4.7 1.87-4.7 6.2v2.27c0 4.42 1.34 6.2 4.7 6.2s4.7-1.86 4.7-6.2zM132.744 23.723v9.238a5.01 5.01 0 0 1-.327 2.077 5.03 5.03 0 0 1-1.147 1.762 5.66 5.66 0 0 1-4.053 1.4c-.726.045-1.453-.057-2.138-.3s-1.315-.62-1.85-1.112A5.24 5.24 0 0 1 122.125 35a5.2 5.2 0 0 1-.308-2.08v-9.2h1.66v9.316a3.67 3.67 0 0 0 .205 1.473 3.65 3.65 0 0 0 .772 1.27 3.94 3.94 0 0 0 1.34.765c.493.164 1.013.23 1.53.192a3.8 3.8 0 0 0 1.488-.2 3.82 3.82 0 0 0 1.295-.76 3.7 3.7 0 0 0 .773-1.279c.168-.474.237-.978.204-1.48v-9.3l1.66.005zM149.922 38v-6.963c.05-.684-.143-1.365-.547-1.92-.218-.226-.484-.4-.778-.512s-.6-.155-.922-.128a2.75 2.75 0 0 0-2.236.869c-.542.782-.797 1.727-.723 2.676V38H143.1v-6.963c.05-.684-.143-1.365-.547-1.92a2.12 2.12 0 0 0-.782-.512 2.13 2.13 0 0 0-.927-.128c-.418-.035-.838.03-1.225.188s-.733.407-1.006.725c-.55.897-.8 1.946-.713 2.994V38h-1.62V27.3h1.32l.264 1.465h.078a3.19 3.19 0 0 1 1.294-1.221c.576-.3 1.216-.45 1.864-.444 1.673 0 2.767.605 3.28 1.816h.078a3.36 3.36 0 0 1 1.39-1.326 4.3 4.3 0 0 1 2.07-.488 3.64 3.64 0 0 1 1.457.185 3.63 3.63 0 0 1 1.263.748 4.17 4.17 0 0 1 .9 2.983V38h-1.618zm11.543 0l-.322-1.523h-.078a4.5 4.5 0 0 1-1.6 1.362c-.63.258-1.305.38-1.985.36-.907.054-1.8-.24-2.5-.82a3.13 3.13 0 0 1-.706-1.068 3 3 0 0 1-.194-1.266c0-2.16 1.73-3.295 5.186-3.4l1.816-.06v-.667a2.72 2.72 0 0 0-.542-1.86 2.23 2.23 0 0 0-1.733-.6 7.06 7.06 0 0 0-3.027.82l-.5-1.24a7.62 7.62 0 0 1 1.733-.674c.617-.16 1.252-.243 1.9-.244 1.02-.082 2.03.22 2.837.85a3.55 3.55 0 0 1 .753 1.266 3.54 3.54 0 0 1 .173 1.462V38h-1.2zm-3.665-1.143c.43.025.864-.036 1.272-.178s.784-.364 1.106-.652a3.06 3.06 0 0 0 .679-1.072c.15-.4.213-.828.188-1.255v-.967l-1.62.067a5.9 5.9 0 0 0-2.788.6 1.8 1.8 0 0 0-.656.71c-.15.292-.22.618-.198.946a1.67 1.67 0 0 0 .531 1.345 2.21 2.21 0 0 0 1.487.457h0zM184.844 38v-6.963a2.89 2.89 0 0 0-.544-1.92c-.218-.226-.484-.4-.778-.512s-.6-.155-.922-.128a2.75 2.75 0 0 0-2.236.869c-.542.782-.797 1.727-.723 2.676V38h-1.623v-6.963c.05-.684-.143-1.365-.547-1.92a2.12 2.12 0 0 0-.782-.512 2.13 2.13 0 0 0-.927-.128c-.418-.035-.838.03-1.225.188s-.733.407-1.006.725c-.548.897-.796 1.945-.708 2.993V38H171.2V27.3h1.32l.264 1.465h.078a3.19 3.19 0 0 1 1.294-1.221 3.95 3.95 0 0 1 1.87-.44c1.673 0 2.767.605 3.28 1.816h.078c.326-.566.807-1.027 1.387-1.328a4.3 4.3 0 0 1 2.07-.488 3.64 3.64 0 0 1 1.457.185 3.63 3.63 0 0 1 1.263.748 4.17 4.17 0 0 1 .9 2.983V38h-1.618zm11.543 0l-.322-1.523h-.078a4.5 4.5 0 0 1-1.6 1.362 4.87 4.87 0 0 1-1.987.361c-.907.054-1.8-.24-2.5-.82-.3-.302-.55-.667-.707-1.07a3 3 0 0 1-.193-1.268c0-2.16 1.73-3.295 5.186-3.4l1.816-.06v-.662a2.72 2.72 0 0 0-.542-1.86 2.23 2.23 0 0 0-1.733-.6 7.06 7.06 0 0 0-3.027.82l-.5-1.24a7.62 7.62 0 0 1 1.733-.674c.617-.16 1.252-.243 1.9-.244 1.02-.082 2.03.22 2.837.85a3.55 3.55 0 0 1 .754 1.265 3.56 3.56 0 0 1 .174 1.462V38h-1.2zm-3.662-1.143c.43.025.864-.036 1.272-.178s.784-.364 1.106-.652c.298-.306.53-.672.678-1.072a3.08 3.08 0 0 0 .186-1.255v-.967l-1.62.067a5.9 5.9 0 0 0-2.788.6c-.28.173-.5.42-.66.7a1.81 1.81 0 0 0-.198.95 1.67 1.67 0 0 0 .116.73c.092.232.235.44.42.6a2.21 2.21 0 0 0 1.49.457h0zM205.8 27.1a6.34 6.34 0 0 1 1.279.117l-.225 1.5a4.93 4.93 0 0 0-1.172-.146 2.84 2.84 0 0 0-1.23.276c-.384.183-.723.45-1 .78a3.85 3.85 0 0 0-.923 2.627V38h-1.62V27.3h1.338l.186 1.982h.078a4.7 4.7 0 0 1 1.436-1.611 3.23 3.23 0 0 1 1.845-.571h0zm7.158 11.1a4.57 4.57 0 0 1-1.959-.315c-.622-.247-1.182-.628-1.64-1.116a5.88 5.88 0 0 1-1.269-4.052 6.07 6.07 0 0 1 1.294-4.15 4.66 4.66 0 0 1 3.682-1.467c.52.001 1.036.056 1.543.166.418.08.825.2 1.2.4l-.5 1.377a7.59 7.59 0 0 0-1.172-.356 5.25 5.25 0 0 0-1.123-.142c-2.175 0-3.262 1.387-3.262 4.16a4.95 4.95 0 0 0 .8 3.027 2.77 2.77 0 0 0 2.357 1.056 7.21 7.21 0 0 0 2.744-.579v1.44a5.85 5.85 0 0 1-2.705.561h0zm11.826-.2l-.322-1.523h-.078a4.5 4.5 0 0 1-1.6 1.362 4.87 4.87 0 0 1-1.984.361c-.907.054-1.8-.24-2.5-.82a3.13 3.13 0 0 1-.706-1.068 3 3 0 0 1-.194-1.266c0-2.16 1.73-3.295 5.186-3.4l1.816-.06v-.667a2.72 2.72 0 0 0-.542-1.86 2.23 2.23 0 0 0-1.733-.6 7.06 7.06 0 0 0-3.027.82l-.5-1.24a7.62 7.62 0 0 1 1.733-.674c.617-.16 1.252-.243 1.9-.244 1.02-.082 2.03.22 2.837.85a3.55 3.55 0 0 1 .754 1.265A3.54 3.54 0 0 1 226 30.7V38h-1.205zm-3.662-1.143c.43.025.864-.036 1.272-.178s.784-.364 1.106-.652a3.07 3.07 0 0 0 .677-1.071c.15-.4.212-.827.187-1.253v-.967l-1.62.068a5.9 5.9 0 0 0-2.788.6 1.8 1.8 0 0 0-.656.71c-.15.292-.22.618-.198.946-.017.25.022.5.114.73a1.67 1.67 0 0 0 .418.61 2.21 2.21 0 0 0 1.489.457h0zm20.684-.293h-.088c-.372.538-.877.972-1.466 1.258s-1.24.417-1.894.378a3.97 3.97 0 0 1-3.269-1.44 6.32 6.32 0 0 1-1.167-4.082 6.43 6.43 0 0 1 1.172-4.111 3.95 3.95 0 0 1 1.455-1.123c.567-.255 1.186-.372 1.807-.34a3.88 3.88 0 0 1 1.87.37 3.89 3.89 0 0 1 1.47 1.213h.127l-.068-.77-.04-.752V22.8h1.62V38h-1.318l-.213-1.436zm-3.242.273a2.95 2.95 0 0 0 1.307-.174c.407-.156.793-.404 1.1-.726a4.57 4.57 0 0 0 .747-2.915v-.342a5.37 5.37 0 0 0-.757-3.247c-.298-.34-.672-.607-1.092-.776a2.87 2.87 0 0 0-1.325-.196 2.48 2.48 0 0 0-1.238.266c-.383.194-.708.484-.945.842-.558.945-.822 2.035-.757 3.13a5.28 5.28 0 0 0 .752 3.1c.252.344.585.62.97.8a2.55 2.55 0 0 0 1.236.238l.001-.001zm17.45-4.2a5.9 5.9 0 0 1-1.318 4.087 4.63 4.63 0 0 1-1.658 1.143c-.63.255-1.308.37-1.986.333-.896.016-1.778-.217-2.55-.674a4.45 4.45 0 0 1-1.715-1.938 6.75 6.75 0 0 1-.605-2.949 5.9 5.9 0 0 1 1.305-4.077c.462-.494 1.027-.88 1.655-1.133s1.303-.364 1.978-.327a4.53 4.53 0 0 1 3.57 1.498 5.88 5.88 0 0 1 1.325 4.04l.001-.002zm-8.154 0a5.08 5.08 0 0 0 .82 3.125 2.85 2.85 0 0 0 1.072.834c.42.187.878.27 1.336.242.46.03.918-.053 1.34-.24a2.86 2.86 0 0 0 1.078-.83 5.05 5.05 0 0 0 .825-3.13 4.97 4.97 0 0 0-.825-3.1 2.9 2.9 0 0 0-2.437-1.06c-.454-.03-.9.05-1.327.23a2.86 2.86 0 0 0-1.073.814c-.604.922-.888 2.016-.8 3.115v-.002z"/></g></g><defs><clipPath id="A"><path fill="#fff" d="M0 0h322v88.46H0z"/></clipPath><path id="B" d="M83.76 66.62v-2.6c0-6.33 3.9-9.54 9.62-9.54 5.8 0 9.62 3.2 9.62 9.54v2.6c0 6.33-3.9 9.54-9.62 9.54-5.8-.01-9.62-3.2-9.62-9.54zm14.32-.17v-2.27c0-4.42-1.34-6.2-4.7-6.2s-4.7 1.87-4.7 6.2v2.27c0 4.42 1.34 6.2 4.7 6.2s4.7-1.86 4.7-6.2z"/></defs></svg>