<svg width="64" height="64" viewBox="0 0 64 64" fill="none" xmlns="http://www.w3.org/2000/svg">
<rect width="64" height="64" rx="32" fill="#65987C"/>
<path d="M40.3999 27.2H38.9999V24.4C38.9999 20.536 35.8639 17.4 31.9999 17.4C28.1359 17.4 24.9999 20.536 24.9999 24.4V27.2H23.5999C22.0599 27.2 20.7999 28.46 20.7999 30V44C20.7999 45.54 22.0599 46.8 23.5999 46.8H40.3999C41.9399 46.8 43.1999 45.54 43.1999 44V30C43.1999 28.46 41.9399 27.2 40.3999 27.2ZM27.7999 24.4C27.7999 22.076 29.6759 20.2 31.9999 20.2C34.3239 20.2 36.1999 22.076 36.1999 24.4V27.2H27.7999V24.4ZM40.3999 44H23.5999V30H40.3999V44ZM31.9999 39.8C33.5399 39.8 34.7999 38.54 34.7999 37C34.7999 35.46 33.5399 34.2 31.9999 34.2C30.4599 34.2 29.1999 35.46 29.1999 37C29.1999 38.54 30.4599 39.8 31.9999 39.8Z" fill="white"/>
</svg>
