<svg width="65" height="64" viewBox="0 0 65 64" fill="none" xmlns="http://www.w3.org/2000/svg">
<rect x="0.599976" width="64" height="64" rx="32" fill="#65987C"/>
<path d="M25.82 22.6667C25.9 23.8533 26.1 25.0133 26.42 26.12L24.82 27.72C24.2733 26.12 23.9266 24.4267 23.8066 22.6667H25.82ZM38.9666 38.6933C40.1 39.0133 41.26 39.2133 42.4333 39.2933V41.28C40.6733 41.16 38.98 40.8133 37.3666 40.28L38.9666 38.6933ZM27.1 20H22.4333C21.7 20 21.1 20.6 21.1 21.3333C21.1 33.8533 31.2466 44 43.7666 44C44.5 44 45.1 43.4 45.1 42.6667V38.0133C45.1 37.28 44.5 36.68 43.7666 36.68C42.1133 36.68 40.5 36.4133 39.0066 35.92C38.8733 35.8667 38.7266 35.8533 38.5933 35.8533C38.2466 35.8533 37.9133 35.9867 37.6466 36.24L34.7133 39.1733C30.94 37.24 27.8466 34.16 25.9266 30.3867L28.86 27.4533C29.2333 27.08 29.34 26.56 29.1933 26.0933C28.7 24.6 28.4333 23 28.4333 21.3333C28.4333 20.6 27.8333 20 27.1 20Z" fill="white"/>
</svg>
