<svg xmlns="http://www.w3.org/2000/svg" width="90" height="90" fill="none" xmlns:v="https://vecta.io/nano"><rect width="90" height="90" rx="45" fill="#007e78"/><path d="M39.96 56.824c11.904-9.552 16.8-13.728 16.8-20.544 0-5.76-4.608-9.36-10.944-9.36-6.48 0-10.224 4.272-10.224 8.976 0 3.024 1.968 5.616 3.84 6.384l1.824-1.872c-1.152-.816-2.448-2.64-2.448-4.512 0-3.936 2.784-6.048 6.624-6.048 4.032 0 6.288 2.64 6.288 6.384 0 5.952-4.224 10.464-8.112 14.208l-9.072 8.88V61h23.232l.384-4.176H39.96z" fill="#fff"/></svg>