<svg xmlns="http://www.w3.org/2000/svg" width="90" height="90" fill="none" xmlns:v="https://vecta.io/nano"><rect width="90" height="90" rx="45" fill="#007e78"/><path d="M46.488 62.48c7.248 0 12.432-4.08 12.432-9.984 0-4.512-3.552-8.304-9.6-8.64v-.096c4.176-.288 8.304-3.168 8.304-7.536 0-5.568-4.656-8.304-10.704-8.304-6.288 0-10.08 3.744-10.08 7.584 0 2.64 1.488 4.512 3.792 5.232l1.296-2.16c-1.152-.576-1.92-1.488-1.92-2.928 0-3.168 2.736-5.088 6.528-5.088 4.032 0 6.144 2.448 6.144 5.76 0 3.888-2.112 6.336-7.68 6.432h-.768v2.4H45c5.424 0 8.688 2.448 8.688 7.392 0 4.224-2.496 7.248-7.872 7.248-3.888 0-7.2-2.304-7.2-5.76 0-1.824 1.104-2.832 2.4-3.648l-1.536-1.872c-1.92.72-4.176 2.544-4.176 5.664 0 4.704 4.416 8.304 11.184 8.304z" fill="#fff"/></svg>